<?xml version="1.0" ?>
<!-- Uploaded to: SVG Repo, www.svgrepo.com, Generator: SVG Repo Mixer Tools -->
<svg width="800px" height="800px" viewBox="0 0 64 64" xmlns="http://www.w3.org/2000/svg">
<defs>
<style>.cls-1{fill:#756e78;}.cls-2{fill:#f6f9f9;}.cls-3{fill:#f6e266;fill-opacity:0.99;}.cls-4{fill:#e7ecf1;}.cls-5{fill:#d57080;}.cls-6{fill:#cb5769;}</style>
</defs>
<g data-name="Winter Avatar" id="Winter_Avatar-4">
<path class="cls-1" d="M46.73,52.92A31.11,31.11,0,0,0,41,39.59c-1.8-2.33-1.56-5-.24-7.62a9.82,9.82,0,1,0-17.5,0c1.32,2.61,1.56,5.29-.24,7.62a31.11,31.11,0,0,0-5.74,13.33Z" id="path29408-3-5-0"/>
<path class="cls-2" d="M28.75,21.84a1.84,1.84,0,0,0-1.08.45,6.76,6.76,0,0,0-2.45,5.24A6.65,6.65,0,0,0,26,30.59c1.63,3.23,2,7.53-.55,10.86-2.45,3.17-7.23,6.7-8.14,11.47,0,.17-.06.35-.08.52A2.31,2.31,0,0,0,19.57,56H44.43a2.31,2.31,0,0,0,2.38-2.56c0-.17-.05-.35-.08-.52-.91-4.77-5.69-8.3-8.14-11.47C36,38.12,36.41,33.82,38,30.59a6.65,6.65,0,0,0,.74-3.06,6.76,6.76,0,0,0-2.45-5.24c-1.43-1.18-3,.1-3,2V26H30.71V24.27C30.71,22.86,29.8,21.79,28.75,21.84Z" id="path30386-60-4-7"/>
<path class="cls-3" d="M29,28.12a4.5,4.5,0,0,0,3,1.69,4.5,4.5,0,0,0,3-1.69.57.57,0,0,0,0-.72,4.5,4.5,0,0,0-3-1.69,4.5,4.5,0,0,0-3,1.69A.57.57,0,0,0,29,28.12Z" id="path41054-7-8"/>
<path class="cls-4" d="M35.25,21.84a1.52,1.52,0,0,0-1,.32l.19.13a6.76,6.76,0,0,1,2.45,5.24,6.91,6.91,0,0,1-.74,3.06c-1.64,3.23-2,7.53.54,10.86,2.45,3.17,7.24,6.7,8.14,11.47l.09.52A2.31,2.31,0,0,1,42.54,56h1.89a2.31,2.31,0,0,0,2.38-2.56c0-.17-.05-.35-.08-.52-.91-4.77-5.69-8.3-8.14-11.47C36,38.12,36.41,33.82,38,30.59a6.65,6.65,0,0,0,.74-3.06,6.76,6.76,0,0,0-2.45-5.24A1.84,1.84,0,0,0,35.25,21.84Z" id="path47202-4-6"/>
<path class="cls-2" d="M31.79,15.47l9.74-4.74,1.3.81.05,10.81Z" id="path205766-62-4-8"/>
<path class="cls-4" d="M41.53,10.73l-.18.09,0,10.61,1.48.92-.05-10.81Z" id="path101777"/>
<path class="cls-5" d="M30.76,15.22a22.23,22.23,0,0,1,12.8,8A2.21,2.21,0,1,1,40,25.72a17.38,17.38,0,0,0-10.09-6.18,2.21,2.21,0,1,1,.9-4.32Z" id="path192449-53-59-4"/>
<path class="cls-5" d="M40.58,10.19A2.19,2.19,0,1,0,42.76,8,2.19,2.19,0,0,0,40.58,10.19Z" id="path205066-6-4-4"/>
<path class="cls-6" d="M40.6,20.1a15.49,15.49,0,0,1,1.48,1.71,2.2,2.2,0,0,1-2.61,3.31c.31.37.48.6.48.6a2.21,2.21,0,1,0,3.61-2.54A19,19,0,0,0,40.6,20.1Z" id="path101779"/>
<path d="M41.78,39c-1.39-1.8-1.43-4-.14-6.55a10.83,10.83,0,0,0,1.18-4.9v-.09a3.44,3.44,0,0,0,.77-.38,3.2,3.2,0,0,0,.77-4.46c0-.05-.2-.28-.49-.63l0-8.81A3.17,3.17,0,0,0,45,7.93a3.28,3.28,0,0,0-4.51,0,3.18,3.18,0,0,0-.93,2.26c0,.11,0,.22,0,.33l-7.94,3.9c-.23-.06-.46-.13-.7-.18h0a3.2,3.2,0,0,0-2.41.46,3.17,3.17,0,0,0-1.38,2,3.24,3.24,0,0,0,0,1.16,10.76,10.76,0,0,0-4.8,14.54c1.29,2.56,1.25,4.76-.14,6.56a32.34,32.34,0,0,0-6,14.33A3.13,3.13,0,0,0,17,55.83,3.48,3.48,0,0,0,19.57,57H44.43a3.48,3.48,0,0,0,2.62-1.17,3.13,3.13,0,0,0,.75-2.52A32.31,32.31,0,0,0,41.78,39Zm-1.92-7.46c-1.65,3.25-1.54,6.26.34,8.68a28,28,0,0,1,2.9,4.73c-.43-.47-.87-.93-1.3-1.38-.9-1-1.76-1.86-2.42-2.71-2.41-3.12-1.81-7.1-.44-9.79a7.8,7.8,0,0,0,.84-3.52c0-.21-.05-.41-.06-.62a3.15,3.15,0,0,0,1.1.58v0A8.79,8.79,0,0,1,39.86,31.52ZM41.93,9.35a1.2,1.2,0,0,1,1.67,0,1.14,1.14,0,0,1,.35.83,1.18,1.18,0,0,1-2.27.47s0,0,0,0h0a1,1,0,0,1-.09-.44A1.14,1.14,0,0,1,41.93,9.35Zm-1.49,3a3.25,3.25,0,0,0,1.41.88l0,6.66a23.64,23.64,0,0,0-7.42-4.6Zm-11.3,4.79a1.2,1.2,0,0,1,1.17-1,1.07,1.07,0,0,1,.25,0,21.41,21.41,0,0,1,12.17,7.55,1.2,1.2,0,0,1-.29,1.67,1.33,1.33,0,0,1-.82.2,1.19,1.19,0,0,1-.86-.48,18.18,18.18,0,0,0-10.69-6.58A1.24,1.24,0,0,1,29.14,17.13ZM23.8,40.2c1.88-2.42,2-5.43.34-8.68a8.78,8.78,0,0,1,3.93-11.86,3.24,3.24,0,0,0,1.59.85,16.71,16.71,0,0,1,3.6,1.21,3.66,3.66,0,0,0-1,2.55v.48a2.89,2.89,0,0,0-.29,0,2.89,2.89,0,0,0-.29,0v-.48a3.46,3.46,0,0,0-1.81-3.19,2.63,2.63,0,0,0-2.87.44,7.75,7.75,0,0,0-2.81,6,7.83,7.83,0,0,0,.84,3.52c1.37,2.69,2,6.67-.44,9.79-.66.85-1.52,1.75-2.42,2.71-.43.44-.87.91-1.3,1.38A27.65,27.65,0,0,1,23.8,40.2ZM32,26.71a3.2,3.2,0,0,1,2,1.05,3.15,3.15,0,0,1-2,1,3.15,3.15,0,0,1-2-1A3.2,3.2,0,0,1,32,26.71ZM45.54,54.52a1.49,1.49,0,0,1-1.11.48H19.57a1.49,1.49,0,0,1-1.11-.48,1.17,1.17,0,0,1-.28-.94c0-.19.07-.39.1-.59.64-3.09,3.14-5.73,5.36-8.06a37.4,37.4,0,0,0,2.56-2.87c3-3.85,2.29-8.68.65-11.92a5.8,5.8,0,0,1,1.45-7.08c.41-.33.66-.21.75-.17a1.5,1.5,0,0,1,.66,1.38v1.18a7.43,7.43,0,0,0-1.83,1.72,1,1,0,0,0,0,1.18c.18.25,1.85,2.46,4.12,2.46s3.94-2.21,4.12-2.46a1,1,0,0,0,0-1.18,7.43,7.43,0,0,0-1.83-1.72V24.27A1.59,1.59,0,0,1,34.85,23a.5.5,0,0,1,.48-.08c.22.14.42.28.62.43a5.68,5.68,0,0,1,1.83,4.23,5.77,5.77,0,0,1-.63,2.61c-1.64,3.24-2.34,8.07.65,11.92a37.4,37.4,0,0,0,2.56,2.87c2.22,2.33,4.72,5,5.36,8.06,0,.2.07.4.1.59A1.17,1.17,0,0,1,45.54,54.52Z"/>
</g>
</svg>